<svg viewBox="0 0 20 20" xmlns="http://www.w3.org/2000/svg">
  <g fill="#545454">
    <path d="M19.2015 0h-6.0573a.7985.7985 0 1 0 0 1.5971h5.2587v5.2587a.7985.7985 0 1 0 1.5971 0V.7985A.7985.7985 0 0 0 19.2015 0zM6.8558 18.4029H1.597v-5.2587a.7985.7985 0 1 0-1.5971 0v6.0573c0 .441.3575.7985.7985.7985h6.0573a.7985.7985 0 1 0 0-1.5971z"/>
    <path d="M19.7667.2333a.7965.7965 0 0 0-1.1265 0l-7.0489 7.0489a.7966.7966 0 0 0 1.1265 1.1265l7.049-7.049a.7966.7966 0 0 0 0-1.1264zM8.4087 11.5913a.7965.7965 0 0 0-1.1265 0l-7.0489 7.049a.7965.7965 0 1 0 1.1265 1.1264l7.0489-7.049a.7965.7965 0 0 0 0-1.1264z"/>
  </g>
</svg>