<svg viewBox="0 0 15 15" xmlns="http://www.w3.org/2000/svg">
  <path fill="#545454" d="M.531 8.031H1.697c.2461 2.798 2.487 5.026 5.272 5.2721v1.1658c0 .285.2332.5311.5311.5311.285 0 .531-.2332.531-.531V13.303c2.798-.2461 5.026-2.487 5.2721-5.272h1.1658c.285 0 .5311-.2332.5311-.5311 0-.285-.2332-.531-.531-.531H13.303c-.2461-2.798-2.487-5.026-5.272-5.2721V.531C8.031.246 7.7979 0 7.5 0c-.285 0-.531.2332-.531.531V1.697c-2.798.2461-5.026 2.487-5.2721 5.272H.531C.233 6.969 0 7.2021 0 7.5c0 .298.2461.531.531.531zm4.3654-1.062H2.759c.246-2.2151 2.0077-3.9768 4.2098-4.21v2.1374c0 .285.2332.531.5311.531.285 0 .531-.2331.531-.531V2.759c2.2151.246 3.9768 2.0077 4.21 4.2098h-2.1374c-.285 0-.531.2332-.531.5311 0 .285.2331.531.531.531h2.1373c-.246 2.2151-2.0077 3.9768-4.2098 4.21v-2.1374c0-.285-.2332-.531-.5311-.531-.285 0-.531.2331-.531.531v2.1373c-2.2151-.246-3.9768-2.0077-4.21-4.2098h2.1374c.285 0 .531-.2332.531-.5311 0-.285-.246-.531-.531-.531z"/>
</svg>