<svg width="63" height="63" viewBox="0 0 63 63" fill="none" xmlns="http://www.w3.org/2000/svg">
  <path
    d="M34.9562 46.6757C34.9562 47.3707 34.7501 48.0501 34.364 48.628C33.9779 49.2059 33.4291 49.6562 32.787 49.9222C32.1449 50.1882 31.4383 50.2578 30.7567 50.1222C30.075 49.9866 29.4489 49.6519 28.9575 49.1605C28.466 48.669 28.1314 48.0429 27.9958 47.3613C27.8602 46.6796 27.9298 45.9731 28.1957 45.331C28.4617 44.6889 28.9121 44.1401 29.49 43.7539C30.0678 43.3678 30.7472 43.1617 31.4422 43.1617C32.3742 43.1617 33.268 43.532 33.927 44.191C34.586 44.85 34.9562 45.7437 34.9562 46.6757ZM62.8132 30.873V35.7124C62.7328 36.0781 62.5437 36.4111 62.2708 36.6676C61.998 36.9241 61.654 37.0922 61.2839 37.1499C61.1893 37.1631 61.0939 37.1688 60.9984 37.1669C60.708 37.1708 60.4208 37.1059 60.1603 36.9774C59.8997 36.8489 59.6734 36.6606 59.4997 36.4277C59.2849 36.1467 59.0075 35.9197 58.6895 35.7648C58.3714 35.61 58.0217 35.5315 57.668 35.5356H57.0308C57.0902 36.2153 57.1293 36.895 57.131 37.5866C57.137 39.4628 56.9237 41.3333 56.4955 43.16C54.7232 51.1294 48.8915 57.6595 41.1669 60.679C38.0862 61.8797 34.8081 62.4935 31.5017 62.4886H31.5C28.1936 62.4935 24.9155 61.8797 21.8348 60.679C14.1102 57.6595 8.27848 51.1294 6.50619 43.16C6.07797 41.3333 5.86469 39.4628 5.87068 37.5866C5.87068 36.895 5.91147 36.2119 5.97094 35.5356H5.33203C4.97919 35.5323 4.63042 35.6111 4.31336 35.766C3.99629 35.9208 3.71965 36.1474 3.50537 36.4277C3.33171 36.6606 3.10535 36.8489 2.84485 36.9774C2.58434 37.1059 2.2971 37.1708 2.00666 37.1669C1.9112 37.1688 1.81575 37.1631 1.72119 37.1499C1.35114 37.0922 1.00714 36.9241 0.734253 36.6676C0.461368 36.4111 0.272327 36.0781 0.191895 35.7124V30.8798C0.271892 30.5138 0.460797 30.1806 0.73376 29.924C1.00672 29.6674 1.35096 29.4995 1.72119 29.4422C1.81632 29.429 1.91234 29.4233 2.00836 29.4252C2.26652 29.4227 2.52237 29.4742 2.75941 29.5765C3.23874 25.7983 4.33516 22.1244 6.00492 18.7015L6.0576 18.5927C6.12896 18.4483 6.20203 18.3056 6.2751 18.1628C6.32268 18.0677 6.37195 17.9725 6.42123 17.8774L6.57246 17.5919C6.65232 17.4441 6.74238 17.2962 6.81545 17.1484L6.89191 17.0091C8.68802 13.7844 11.0356 10.8996 13.8281 8.48578L12.5741 5.04656C12.0644 5.10815 11.5488 4.9958 11.111 4.72772C10.6731 4.45965 10.3386 4.05155 10.1617 3.56958C9.98474 3.08762 9.97577 2.56003 10.1362 2.07232C10.2966 1.58462 10.6171 1.16539 11.0456 0.882577C11.4741 0.599767 11.9855 0.469954 12.497 0.514179C13.0085 0.558403 13.4901 0.774073 13.8637 1.12623C14.2373 1.47839 14.481 1.9464 14.5554 2.4544C14.6297 2.9624 14.5303 3.48063 14.2733 3.92507L16.9921 6.13406C20.6038 3.77917 24.7311 2.33172 29.0225 1.9149L29.1925 1.89961L29.5493 1.87072L29.8433 1.85033L30.2222 1.82824L30.6691 1.81125H30.8866H31.3233H31.6971H32.1338H32.3513L32.7982 1.82824L33.1771 1.85033L33.4711 1.87072L33.8279 1.89961L33.9979 1.9149C38.2893 2.33172 42.4166 3.77917 46.0283 6.13406L48.7471 3.92507C48.4908 3.48122 48.392 2.96386 48.4665 2.4568C48.541 1.94975 48.7845 1.48269 49.1575 1.13129C49.5306 0.779898 50.0114 0.564749 50.522 0.520698C51.0326 0.476648 51.5431 0.606277 51.9709 0.888585C52.3986 1.17089 52.7185 1.58934 52.8787 2.07615C53.039 2.56296 53.0302 3.08961 52.8537 3.57079C52.6773 4.05196 52.3436 4.45948 51.9066 4.72733C51.4697 4.99518 50.9551 5.10766 50.4463 5.04656L49.1719 8.48578C51.9621 10.8985 54.3079 13.7815 56.103 17.004L56.1795 17.1433C56.261 17.2911 56.3494 17.439 56.4224 17.5868L56.5737 17.8723C56.6229 17.9674 56.6722 18.0626 56.7198 18.1577C56.7929 18.3005 56.8659 18.4432 56.9373 18.5859C56.9543 18.6233 56.973 18.6607 56.9917 18.6981C58.6601 22.1214 59.7559 25.7951 60.2355 29.5731C60.4725 29.4708 60.7284 29.4193 60.9865 29.4219C61.0826 29.4199 61.1786 29.4256 61.2737 29.4388C61.6462 29.4944 61.993 29.662 62.268 29.9194C62.543 30.1768 62.7332 30.5117 62.8132 30.8798V30.873ZM38.9409 23.1381H24.0591C20.2829 23.1381 16.6613 24.6381 13.9909 27.3082C11.3205 29.9782 9.82012 33.5996 9.81967 37.3759V38.6639C9.81967 46.5279 16.1951 56.0979 24.0591 56.0979H38.9409C46.8049 56.0979 53.1803 46.5279 53.1803 38.6639V37.3759C53.1799 33.5996 51.6795 29.9782 49.0091 27.3082C46.3387 24.6381 42.7171 23.1381 38.9409 23.1381V23.1381ZM57.668 31.0633C58.0587 31.0626 58.4429 30.9626 58.7844 30.7727C55.634 19.0583 44.6435 10.3685 31.5765 10.3209H31.4065C18.3396 10.3685 7.349 19.0583 4.19865 30.7727C4.54015 30.9626 4.9243 31.0626 5.31504 31.0633H6.77977C9.77209 20.6199 19.6938 12.9309 31.4422 12.9207H31.5374C43.2841 12.9309 53.2075 20.6199 56.1998 31.0633H57.668ZM27.896 37.8007L25.0719 34.9766L27.896 32.1525C28.1954 31.8528 28.3636 31.4464 28.3634 31.0228C28.3633 30.5991 28.1948 30.1928 27.8951 29.8934C27.5954 29.5939 27.189 29.4258 26.7654 29.4259C26.3417 29.4261 25.9355 29.5945 25.636 29.8942L22.8136 32.7183L19.9895 29.8942C19.6851 29.6211 19.2875 29.4751 18.8787 29.4864C18.4698 29.4976 18.0809 29.6653 17.792 29.9549C17.5031 30.2444 17.3363 30.6337 17.3259 31.0426C17.3156 31.4514 17.4625 31.8487 17.7363 32.1525L20.5587 34.9766L17.7363 37.8007C17.4483 38.1025 17.2898 38.505 17.2946 38.9221C17.2995 39.3393 17.4673 39.738 17.7623 40.033C18.0573 40.3279 18.456 40.4958 18.8732 40.5007C19.2903 40.5055 19.6928 40.347 19.9946 40.059L22.8187 37.2349L25.6411 40.059C25.7894 40.2073 25.9654 40.3251 26.1592 40.4054C26.353 40.4858 26.5607 40.5272 26.7705 40.5273C26.9803 40.5273 27.188 40.4861 27.3818 40.4059C27.5757 40.3257 27.7518 40.2081 27.9002 40.0598C28.0486 39.9115 28.1663 39.7355 28.2467 39.5417C28.327 39.3479 28.3684 39.1402 28.3685 38.9304C28.3686 38.7207 28.3273 38.5129 28.2471 38.3191C28.1669 38.1252 28.0493 37.9491 27.9011 37.8007H27.896ZM45.1447 29.8942C44.8449 29.5948 44.4385 29.4266 44.0147 29.4266C43.591 29.4266 43.1846 29.5948 42.8848 29.8942L40.0624 32.7183L37.2383 29.8942C36.9365 29.6062 36.534 29.4477 36.1168 29.4525C35.6997 29.4574 35.301 29.6252 35.006 29.9202C34.711 30.2152 34.5431 30.6139 34.5383 31.0311C34.5334 31.4482 34.692 31.8507 34.98 32.1525L37.8041 34.9766L34.98 37.8007C34.692 38.1025 34.5334 38.505 34.5383 38.9221C34.5431 39.3393 34.711 39.738 35.006 40.033C35.301 40.3279 35.6997 40.4958 36.1168 40.5007C36.534 40.5055 36.9365 40.347 37.2383 40.059L40.0624 37.2349L42.8848 40.059C43.1842 40.3586 43.5905 40.5271 44.0141 40.5273C44.4378 40.5274 44.8442 40.3593 45.1439 40.0598C45.4436 39.7603 45.612 39.3541 45.6122 38.9304C45.6123 38.5068 45.4442 38.1004 45.1447 37.8007L42.3206 34.9766L45.1447 32.1525C45.4441 31.853 45.6122 31.4468 45.6122 31.0234C45.6122 30.5999 45.4441 30.1938 45.1447 29.8942V29.8942Z"
    fill="#008EB8"/>
</svg>
