<svg width="257" height="130" viewBox="0 0 257 130" fill="none" xmlns="http://www.w3.org/2000/svg">
  <g clip-path="url(#clip0_1_12)">
    <path
      d="M128.5 25.6992C138.144 25.7044 147.49 29.0434 154.954 35.1504C162.418 41.2574 167.541 49.7569 169.456 59.209C171.371 68.6611 169.959 78.4845 165.46 87.0149C160.961 95.5453 153.652 102.258 144.77 106.016C134.555 110.331 123.044 110.412 112.77 106.24C102.495 102.068 94.2989 93.9851 89.9838 83.77C85.6687 73.5549 85.5883 62.044 89.7603 51.7696C93.9323 41.4952 102.015 33.2989 112.23 28.9838C117.377 26.8051 122.911 25.6879 128.5 25.6992M128.5 24C104.476 24 85 43.4764 85 67.5C85 91.5236 104.476 111 128.5 111C152.524 111 172 91.5236 172 67.5C172 43.4764 152.524 24 128.5 24Z"
      fill="#008EB8"/>
  </g>
  <path
    d="M50.264 111V91.48H5.734V88.918L49.654 25.844H52.704V89.162H67.1V91.48H52.704V111H50.264ZM8.418 89.162H50.264V29.26H50.02L8.418 89.162Z"
    fill="#008EB8"/>
  <path
    d="M233.264 111V91.48H188.734V88.918L232.654 25.844H235.704V89.162H250.1V91.48H235.704V111H233.264ZM191.418 89.162H233.264V29.26H233.02L191.418 89.162Z"
    fill="#008EB8"/>
  <path
    d="M131.956 82.6757C131.956 83.3707 131.75 84.0501 131.364 84.628C130.978 85.2059 130.429 85.6562 129.787 85.9222C129.145 86.1882 128.438 86.2578 127.757 86.1222C127.075 85.9866 126.449 85.6519 125.957 85.1605C125.466 84.669 125.131 84.0429 124.996 83.3613C124.86 82.6796 124.93 81.9731 125.196 81.331C125.462 80.6889 125.912 80.1401 126.49 79.7539C127.068 79.3678 127.747 79.1617 128.442 79.1617C129.374 79.1617 130.268 79.532 130.927 80.191C131.586 80.85 131.956 81.7437 131.956 82.6757ZM159.813 66.873V71.7124C159.733 72.0781 159.544 72.4111 159.271 72.6676C158.998 72.9241 158.654 73.0922 158.284 73.1499C158.189 73.1631 158.094 73.1688 157.998 73.1669C157.708 73.1708 157.421 73.1059 157.16 72.9774C156.9 72.8489 156.673 72.6606 156.5 72.4277C156.285 72.1467 156.007 71.9197 155.689 71.7648C155.371 71.61 155.022 71.5315 154.668 71.5356H154.031C154.09 72.2153 154.129 72.895 154.131 73.5866C154.137 75.4628 153.924 77.3333 153.496 79.16C151.723 87.1294 145.892 93.6595 138.167 96.679C135.086 97.8797 131.808 98.4935 128.502 98.4886H128.5C125.194 98.4935 121.916 97.8797 118.835 96.679C111.11 93.6595 105.278 87.1294 103.506 79.16C103.078 77.3333 102.865 75.4628 102.871 73.5866C102.871 72.895 102.911 72.2119 102.971 71.5356H102.332C101.979 71.5323 101.63 71.6111 101.313 71.766C100.996 71.9208 100.72 72.1474 100.505 72.4277C100.332 72.6606 100.105 72.8489 99.8448 72.9774C99.5843 73.1059 99.2971 73.1708 99.0067 73.1669C98.9112 73.1688 98.8158 73.1631 98.7212 73.1499C98.3511 73.0922 98.0071 72.9241 97.7343 72.6676C97.4614 72.4111 97.2723 72.0781 97.1919 71.7124V66.8798C97.2719 66.5138 97.4608 66.1806 97.7338 65.924C98.0067 65.6674 98.351 65.4995 98.7212 65.4422C98.8163 65.429 98.9123 65.4233 99.0084 65.4252C99.2665 65.4227 99.5224 65.4742 99.7594 65.5765C100.239 61.7983 101.335 58.1244 103.005 54.7015L103.058 54.5927C103.129 54.4483 103.202 54.3056 103.275 54.1628C103.323 54.0677 103.372 53.9725 103.421 53.8774L103.572 53.5919C103.652 53.4441 103.742 53.2962 103.815 53.1484L103.892 53.0091C105.688 49.7844 108.036 46.8996 110.828 44.4858L109.574 41.0466C109.064 41.1081 108.549 40.9958 108.111 40.7277C107.673 40.4596 107.339 40.0516 107.162 39.5696C106.985 39.0876 106.976 38.56 107.136 38.0723C107.297 37.5846 107.617 37.1654 108.046 36.8826C108.474 36.5998 108.986 36.47 109.497 36.5142C110.009 36.5584 110.49 36.7741 110.864 37.1262C111.237 37.4784 111.481 37.9464 111.555 38.4544C111.63 38.9624 111.53 39.4806 111.273 39.9251L113.992 42.1341C117.604 39.7792 121.731 38.3317 126.023 37.9149L126.192 37.8996L126.549 37.8707L126.843 37.8503L127.222 37.8282L127.669 37.8112H127.887H128.323H128.697H129.134H129.351L129.798 37.8282L130.177 37.8503L130.471 37.8707L130.828 37.8996L130.998 37.9149C135.289 38.3317 139.417 39.7792 143.028 42.1341L145.747 39.9251C145.491 39.4812 145.392 38.9639 145.466 38.4568C145.541 37.9497 145.784 37.4827 146.158 37.1313C146.531 36.7799 147.011 36.5647 147.522 36.5207C148.033 36.4766 148.543 36.6063 148.971 36.8886C149.399 37.1709 149.718 37.5893 149.879 38.0762C150.039 38.563 150.03 39.0896 149.854 39.5708C149.677 40.052 149.344 40.4595 148.907 40.7273C148.47 40.9952 147.955 41.1077 147.446 41.0466L146.172 44.4858C148.962 46.8985 151.308 49.7815 153.103 53.004L153.179 53.1433C153.261 53.2911 153.349 53.439 153.422 53.5868L153.574 53.8723C153.623 53.9674 153.672 54.0626 153.72 54.1577C153.793 54.3005 153.866 54.4432 153.937 54.5859C153.954 54.6233 153.973 54.6607 153.992 54.6981C155.66 58.1214 156.756 61.7951 157.235 65.5731C157.473 65.4708 157.728 65.4193 157.987 65.4219C158.083 65.4199 158.179 65.4256 158.274 65.4388C158.646 65.4944 158.993 65.662 159.268 65.9194C159.543 66.1768 159.733 66.5117 159.813 66.8798V66.873ZM135.941 59.1381H121.059C117.283 59.1381 113.661 60.6381 110.991 63.3082C108.321 65.9782 106.82 69.5996 106.82 73.3759V74.6639C106.82 82.5279 113.195 92.0979 121.059 92.0979H135.941C143.805 92.0979 150.18 82.5279 150.18 74.6639V73.3759C150.18 69.5996 148.679 65.9782 146.009 63.3082C143.339 60.6381 139.717 59.1381 135.941 59.1381V59.1381ZM154.668 67.0633C155.059 67.0626 155.443 66.9626 155.784 66.7727C152.634 55.0583 141.643 46.3685 128.576 46.3209H128.407C115.34 46.3685 104.349 55.0583 101.199 66.7727C101.54 66.9626 101.924 67.0626 102.315 67.0633H103.78C106.772 56.6199 116.694 48.9309 128.442 48.9207H128.537C140.284 48.9309 150.208 56.6199 153.2 67.0633H154.668ZM124.896 73.8007L122.072 70.9766L124.896 68.1525C125.195 67.8528 125.364 67.4464 125.363 67.0228C125.363 66.5991 125.195 66.1928 124.895 65.8934C124.595 65.5939 124.189 65.4258 123.765 65.4259C123.342 65.4261 122.935 65.5945 122.636 65.8942L119.814 68.7183L116.989 65.8942C116.685 65.6211 116.287 65.4751 115.879 65.4864C115.47 65.4976 115.081 65.6653 114.792 65.9549C114.503 66.2444 114.336 66.6337 114.326 67.0426C114.316 67.4514 114.462 67.8487 114.736 68.1525L117.559 70.9766L114.736 73.8007C114.448 74.1025 114.29 74.505 114.295 74.9221C114.299 75.3393 114.467 75.738 114.762 76.033C115.057 76.3279 115.456 76.4958 115.873 76.5007C116.29 76.5055 116.693 76.347 116.995 76.059L119.819 73.2349L122.641 76.059C122.789 76.2073 122.965 76.3251 123.159 76.4054C123.353 76.4858 123.561 76.5272 123.77 76.5273C123.98 76.5273 124.188 76.4861 124.382 76.4059C124.576 76.3257 124.752 76.2081 124.9 76.0598C125.049 75.9115 125.166 75.7355 125.247 75.5417C125.327 75.3479 125.368 75.1402 125.369 74.9304C125.369 74.7207 125.327 74.5129 125.247 74.3191C125.167 74.1252 125.049 73.9491 124.901 73.8007H124.896ZM142.145 65.8942C141.845 65.5948 141.438 65.4266 141.015 65.4266C140.591 65.4266 140.185 65.5948 139.885 65.8942L137.062 68.7183L134.238 65.8942C133.936 65.6062 133.534 65.4477 133.117 65.4525C132.7 65.4574 132.301 65.6252 132.006 65.9202C131.711 66.2152 131.543 66.6139 131.538 67.0311C131.533 67.4482 131.692 67.8507 131.98 68.1525L134.804 70.9766L131.98 73.8007C131.692 74.1025 131.533 74.505 131.538 74.9221C131.543 75.3393 131.711 75.738 132.006 76.033C132.301 76.3279 132.7 76.4958 133.117 76.5007C133.534 76.5055 133.936 76.347 134.238 76.059L137.062 73.2349L139.885 76.059C140.184 76.3586 140.59 76.5271 141.014 76.5273C141.438 76.5274 141.844 76.3593 142.144 76.0598C142.444 75.7603 142.612 75.3541 142.612 74.9304C142.612 74.5068 142.444 74.1004 142.145 73.8007L139.321 70.9766L142.145 68.1525C142.444 67.853 142.612 67.4468 142.612 67.0234C142.612 66.5999 142.444 66.1938 142.145 65.8942V65.8942Z"
    fill="#008EB8"/>
  <defs>
    <clipPath id="clip0_1_12">
      <rect width="87" height="87" fill="white" transform="translate(85 24)"/>
    </clipPath>
  </defs>
</svg>
